#N canvas 454 416 570 412 10;
#X obj 59 22 inlet;
#X obj 59 104 list split 1;
#X obj 59 126 outlet;
#X obj 59 44 t b;
#X obj 59 66 list prepend;
#X obj 189 22 inlet;
#X obj 189 122 t b a;
#X obj 140 154 list prepend;
#X obj 140 176 route bang;
#X obj 140 124 t b;
#X connect 0 0 3 0;
#X connect 1 0 2 0;
#X connect 1 1 4 1;
#X connect 1 2 9 0;
#X connect 3 0 4 0;
#X connect 4 0 1 0;
#X connect 5 0 6 0;
#X connect 6 0 7 0;
#X connect 6 1 7 1;
#X connect 7 0 8 0;
#X connect 8 1 4 1;
#X connect 9 0 7 0;
